<svg width="535" height="191" viewBox="0 0 535 191" fill="none" xmlns="http://www.w3.org/2000/svg">
<rect width="535" height="191" fill="#1E1E1E"/>
<g clip-path="url(#clip0_0_1)">
<path d="M-1.42068 68.2915L-1.02068 116.748L2.57932 124.356C13.3793 147.179 31.7793 156.605 69.3793 158.425C80.846 158.921 90.3127 158.921 90.3127 158.425C90.3127 157.928 87.5126 155.778 84.046 153.628C80.446 151.479 74.846 146.186 71.3793 141.886C61.5127 129.483 60.9793 125.679 60.9793 68.4569V20H29.5127H-1.82068L-1.42068 68.2915Z" fill="black"/>
<path d="M120.713 72.426L120.313 125.017L116.579 132.956C114.446 137.421 109.513 144.036 105.513 147.84C97.246 155.778 97.646 156.275 112.579 158.094C124.313 159.582 137.779 156.936 152.179 150.486C165.913 144.367 175.779 134.279 180.446 121.71C183.513 113.606 183.646 112.283 183.646 66.6377V20H152.446H121.113L120.713 72.426Z" fill="black"/>
<path d="M208.979 25.1269C218.313 31.4114 224.179 38.5228 228.046 48.1149C230.846 55.2263 230.979 57.5417 231.379 107.156L231.779 158.921H263.113H294.446L294.046 110.464C293.646 63.9916 293.513 61.8416 290.579 55.2263C286.046 44.6419 278.979 36.7036 268.446 30.5845C255.113 22.8115 241.913 20 220.046 20H201.646L208.979 25.1269Z" fill="black"/>
<path d="M305.646 37.3651C297.913 50.5956 295.646 55.5571 296.446 57.707C297.113 59.1955 297.913 81.6874 298.313 107.652L298.979 154.786L327.113 105.999C355.913 55.8878 373.113 25.7884 374.846 21.9846C375.646 20.4961 369.379 20 345.779 20H315.913L305.646 37.3651Z" fill="black"/>
<path d="M369.379 42.6573C362.046 55.2263 354.979 67.63 353.646 70.1107L351.246 74.7414L356.979 84.995C360.179 90.618 370.979 109.141 380.846 126.175L398.979 157.267H407.646C418.179 157.267 429.646 152.636 439.646 144.202C452.579 133.287 454.313 138.744 417.513 76.2298C399.646 45.7996 384.446 20.6615 383.779 20.3308C383.113 20 376.579 30.0883 369.379 42.6573Z" fill="black"/>
<path d="M459.379 71.5991L458.979 123.364L455.113 132.129C450.846 141.556 445.379 147.84 435.646 154.125L429.646 158.094L442.979 158.59C466.179 159.582 488.713 154.125 501.913 144.532C505.113 142.217 510.046 137.09 512.846 133.121C521.779 120.552 522.313 116.418 522.313 65.1492V20H491.113H459.779L459.379 71.5991Z" fill="black"/>
</g>
<path d="M500.576 189.438C501.104 189.438 501.507 189.402 501.787 189.33C502.074 189.258 502.256 189.128 502.334 188.939L507.363 176.371H511.65L517.539 189.438H519.238V190.209H508.164V189.438H510.049L508.701 186.068H504.404L503.262 188.91C503.255 188.93 503.252 188.956 503.252 188.988C503.252 189.079 503.294 189.154 503.379 189.213C503.47 189.265 503.594 189.311 503.75 189.35C503.913 189.382 504.102 189.405 504.316 189.418C504.538 189.431 504.779 189.438 505.039 189.438V190.209H500.576V189.438ZM508.398 185.297L506.514 180.688L504.707 185.297H508.398Z" fill="white"/>
<path d="M483.828 183.617C483.828 182.536 484.001 181.531 484.346 180.6C484.691 179.669 485.208 178.865 485.898 178.188C486.595 177.504 487.461 176.97 488.496 176.586C489.531 176.195 490.739 176 492.119 176C493.122 176 494.053 176.153 494.912 176.459C495.771 176.765 496.566 177.26 497.295 177.943L498.496 176.146H499.17V182.484H498.408C498.174 181.449 497.855 180.59 497.451 179.906C497.054 179.223 496.615 178.679 496.133 178.275C495.658 177.865 495.16 177.579 494.639 177.416C494.124 177.247 493.636 177.162 493.174 177.162C492.952 177.162 492.731 177.182 492.51 177.221C492.295 177.253 492.087 177.335 491.885 177.465C491.683 177.589 491.494 177.771 491.318 178.012C491.143 178.253 490.99 178.581 490.859 178.998C490.736 179.408 490.635 179.916 490.557 180.521C490.485 181.127 490.449 181.856 490.449 182.709C490.449 183.601 490.475 184.385 490.527 185.062C490.586 185.74 490.671 186.326 490.781 186.82C490.898 187.315 491.038 187.725 491.201 188.051C491.37 188.376 491.566 188.637 491.787 188.832C492.015 189.027 492.269 189.167 492.549 189.252C492.829 189.33 493.135 189.369 493.467 189.369C494.118 189.369 494.727 189.271 495.293 189.076C495.859 188.874 496.361 188.559 496.797 188.129C497.233 187.699 497.591 187.146 497.871 186.469C498.158 185.792 498.343 184.978 498.428 184.027H499.287C499.235 184.945 499.069 185.801 498.789 186.596C498.516 187.39 498.096 188.083 497.529 188.676C496.963 189.268 496.234 189.734 495.342 190.072C494.45 190.411 493.363 190.58 492.08 190.58C490.83 190.58 489.697 190.411 488.682 190.072C487.666 189.734 486.797 189.258 486.074 188.646C485.358 188.028 484.805 187.292 484.414 186.439C484.023 185.587 483.828 184.646 483.828 183.617Z" fill="white"/>
<path d="M464.053 189.438C464.58 189.438 464.984 189.402 465.264 189.33C465.55 189.258 465.732 189.128 465.811 188.939L470.84 176.371H475.127L481.016 189.438H482.715V190.209H471.641V189.438H473.525L472.178 186.068H467.881L466.738 188.91C466.732 188.93 466.729 188.956 466.729 188.988C466.729 189.079 466.771 189.154 466.855 189.213C466.947 189.265 467.07 189.311 467.227 189.35C467.389 189.382 467.578 189.405 467.793 189.418C468.014 189.431 468.255 189.438 468.516 189.438V190.209H464.053V189.438ZM471.875 185.297L469.99 180.688L468.184 185.297H471.875Z" fill="white"/>
<path d="M453.076 189.438H454.785V177.133H453.076V176.371H463.223V177.133H461.523V189.438H463.223V190.209H453.076V189.438Z" fill="white"/>
<path d="M436.924 189.438H438.633V177.133H436.924V176.371H447.07V177.133H445.371V189.438H448.477L450.928 184.994H451.592V190.209H436.924V189.438Z" fill="white"/>
<path d="M419.951 177.133H418.242V176.371H428.389V177.133H426.689V184.672C426.689 185.284 426.722 185.867 426.787 186.42C426.852 186.973 426.986 187.462 427.188 187.885C427.396 188.301 427.689 188.633 428.066 188.881C428.451 189.128 428.958 189.252 429.59 189.252C429.831 189.252 430.078 189.229 430.332 189.184C430.586 189.132 430.83 189.037 431.064 188.9C431.305 188.764 431.53 188.575 431.738 188.334C431.953 188.093 432.139 187.784 432.295 187.406C432.458 187.022 432.585 186.563 432.676 186.029C432.767 185.489 432.812 184.851 432.812 184.115V177.709C432.812 177.52 432.666 177.377 432.373 177.279C432.087 177.182 431.66 177.133 431.094 177.133V176.371H435.342V177.133C434.782 177.133 434.359 177.182 434.072 177.279C433.786 177.377 433.643 177.52 433.643 177.709V183.842C433.643 185.027 433.532 186.046 433.311 186.898C433.096 187.745 432.728 188.441 432.207 188.988C431.693 189.535 431.006 189.939 430.146 190.199C429.294 190.453 428.229 190.58 426.953 190.58C426.068 190.58 425.28 190.502 424.59 190.346C423.9 190.189 423.294 189.971 422.773 189.691C422.253 189.405 421.813 189.066 421.455 188.676C421.097 188.279 420.807 187.846 420.586 187.377C420.365 186.902 420.202 186.397 420.098 185.863C420 185.329 419.951 184.779 419.951 184.213V177.133Z" fill="white"/>
<path d="M404.395 187.865C404.395 187.611 404.453 187.374 404.57 187.152C404.681 186.924 404.837 186.729 405.039 186.566C405.247 186.397 405.492 186.264 405.771 186.166C406.058 186.068 406.367 186.02 406.699 186.02C407.038 186.02 407.347 186.068 407.627 186.166C407.913 186.264 408.158 186.397 408.359 186.566C408.561 186.729 408.717 186.924 408.828 187.152C408.939 187.374 408.994 187.611 408.994 187.865C408.994 188.269 408.861 188.627 408.594 188.939C408.327 189.252 407.965 189.473 407.51 189.604C407.633 189.656 407.77 189.695 407.92 189.721C408.076 189.747 408.223 189.76 408.359 189.76C408.626 189.76 408.851 189.711 409.033 189.613C409.222 189.509 409.375 189.372 409.492 189.203C409.609 189.034 409.694 188.839 409.746 188.617C409.798 188.389 409.824 188.148 409.824 187.895C409.824 187.589 409.753 187.263 409.609 186.918C409.473 186.573 409.32 186.225 409.15 185.873C408.962 185.495 408.789 185.128 408.633 184.77C408.483 184.405 408.408 184.07 408.408 183.764V177.133H406.699V176.371H416.855V177.133H415.146V186.137C415.146 187.009 415.039 187.732 414.824 188.305C414.616 188.871 414.3 189.324 413.877 189.662C413.46 190.001 412.936 190.238 412.305 190.375C411.68 190.512 410.947 190.58 410.107 190.58C409.339 190.58 408.61 190.518 407.92 190.395C407.23 190.271 406.621 190.092 406.094 189.857C405.573 189.623 405.16 189.34 404.854 189.008C404.548 188.669 404.395 188.288 404.395 187.865Z" fill="white"/>
<path d="M380.127 189.438H381.836V177.133H380.127V176.371H395.254V181.127H394.59L391.875 177.133H388.574V182.943H390.049L391.338 179.721H391.973V186.947H391.338L390.049 183.705H388.574V189.438H392.217L395.049 184.994H395.723V190.209H380.127V189.438Z" fill="white"/>
<path d="M360.361 189.438H362.07V177.133H360.361V176.371H371.25C372.285 176.371 373.219 176.527 374.053 176.84C374.886 177.146 375.596 177.595 376.182 178.188C376.768 178.78 377.217 179.506 377.529 180.365C377.848 181.218 378.008 182.191 378.008 183.285C378.008 184.385 377.848 185.365 377.529 186.225C377.217 187.084 376.768 187.81 376.182 188.402C375.596 188.988 374.886 189.438 374.053 189.75C373.219 190.056 372.285 190.209 371.25 190.209H360.361V189.438ZM368.809 189.438C369.115 189.438 369.391 189.408 369.639 189.35C369.893 189.285 370.114 189.167 370.303 188.998C370.492 188.829 370.654 188.601 370.791 188.314C370.928 188.021 371.038 187.647 371.123 187.191C371.214 186.736 371.279 186.189 371.318 185.551C371.364 184.906 371.387 184.151 371.387 183.285C371.387 182.419 371.364 181.667 371.318 181.029C371.279 180.391 371.214 179.844 371.123 179.389C371.038 178.933 370.928 178.559 370.791 178.266C370.654 177.973 370.492 177.745 370.303 177.582C370.114 177.413 369.893 177.296 369.639 177.23C369.391 177.165 369.115 177.133 368.809 177.133V189.438Z" fill="white"/>
<path d="M336.826 189.438H338.535V177.133H336.826V176.371H346.973V177.133H345.273V189.438H348.379L350.83 184.994H351.494V190.209H336.826V189.438Z" fill="white"/>
<path d="M317.236 189.438C317.764 189.438 318.167 189.402 318.447 189.33C318.734 189.258 318.916 189.128 318.994 188.939L324.023 176.371H328.311L334.199 189.438H335.898V190.209H324.824V189.438H326.709L325.361 186.068H321.064L319.922 188.91C319.915 188.93 319.912 188.956 319.912 188.988C319.912 189.079 319.954 189.154 320.039 189.213C320.13 189.265 320.254 189.311 320.41 189.35C320.573 189.382 320.762 189.405 320.977 189.418C321.198 189.431 321.439 189.438 321.699 189.438V190.209H317.236V189.438ZM325.059 185.297L323.174 180.688L321.367 185.297H325.059Z" fill="white"/>
<path d="M299.609 189.438C299.889 189.438 300.16 189.431 300.42 189.418C300.687 189.398 300.921 189.369 301.123 189.33C301.325 189.291 301.484 189.236 301.602 189.164C301.725 189.092 301.787 188.998 301.787 188.881V178.695L300.596 177.133H299.434V176.371H307.969L314.248 184.643V177.709C314.248 177.592 314.206 177.497 314.121 177.426C314.043 177.348 313.926 177.289 313.77 177.25C313.613 177.204 313.424 177.175 313.203 177.162C312.982 177.143 312.731 177.133 312.451 177.133V176.371H316.875V177.133C316.315 177.133 315.876 177.169 315.557 177.24C315.238 177.312 315.078 177.468 315.078 177.709V190.209H310.127L302.617 179.789V188.832C302.617 188.962 302.669 189.066 302.773 189.145C302.884 189.223 303.031 189.285 303.213 189.33C303.402 189.369 303.623 189.398 303.877 189.418C304.131 189.431 304.401 189.438 304.688 189.438V190.209H299.609V189.438Z" fill="white"/>
<path d="M281.27 183.285C281.27 182.641 281.335 182.012 281.465 181.4C281.602 180.788 281.81 180.212 282.09 179.672C282.376 179.132 282.741 178.637 283.184 178.188C283.626 177.738 284.157 177.351 284.775 177.025C285.394 176.7 286.107 176.449 286.914 176.273C287.721 176.091 288.63 176 289.639 176C290.648 176 291.556 176.091 292.363 176.273C293.171 176.449 293.883 176.7 294.502 177.025C295.127 177.351 295.661 177.738 296.104 178.188C296.546 178.637 296.908 179.132 297.188 179.672C297.467 180.212 297.673 180.788 297.803 181.4C297.939 182.012 298.008 182.641 298.008 183.285C298.008 183.93 297.939 184.561 297.803 185.18C297.673 185.792 297.467 186.368 297.188 186.908C296.908 187.449 296.546 187.943 296.104 188.393C295.661 188.842 295.127 189.229 294.502 189.555C293.883 189.88 293.171 190.131 292.363 190.307C291.556 190.489 290.648 190.58 289.639 190.58C288.63 190.58 287.721 190.489 286.914 190.307C286.107 190.131 285.394 189.88 284.775 189.555C284.157 189.229 283.626 188.842 283.184 188.393C282.741 187.943 282.376 187.449 282.09 186.908C281.81 186.368 281.602 185.792 281.465 185.18C281.335 184.568 281.27 183.936 281.27 183.285ZM289.639 189.906C289.977 189.906 290.257 189.805 290.479 189.604C290.706 189.402 290.889 189.05 291.025 188.549C291.162 188.041 291.257 187.364 291.309 186.518C291.367 185.665 291.396 184.587 291.396 183.285C291.396 181.99 291.367 180.919 291.309 180.072C291.257 179.219 291.162 178.542 291.025 178.041C290.889 177.533 290.706 177.178 290.479 176.977C290.257 176.775 289.977 176.674 289.639 176.674C289.3 176.674 289.017 176.775 288.789 176.977C288.568 177.178 288.389 177.533 288.252 178.041C288.122 178.542 288.027 179.219 287.969 180.072C287.917 180.919 287.891 181.99 287.891 183.285C287.891 184.587 287.917 185.665 287.969 186.518C288.027 187.364 288.122 188.041 288.252 188.549C288.389 189.05 288.568 189.402 288.789 189.604C289.017 189.805 289.3 189.906 289.639 189.906Z" fill="white"/>
<path d="M268.994 189.438H270.703V177.133H268.994V176.371H279.141V177.133H277.441V189.438H279.141V190.209H268.994V189.438Z" fill="white"/>
<path d="M251.133 183.617C251.133 182.536 251.305 181.531 251.65 180.6C251.995 179.669 252.513 178.865 253.203 178.188C253.9 177.504 254.766 176.97 255.801 176.586C256.836 176.195 258.044 176 259.424 176C260.426 176 261.357 176.153 262.217 176.459C263.076 176.765 263.87 177.26 264.6 177.943L265.801 176.146H266.475V182.484H265.713C265.479 181.449 265.16 180.59 264.756 179.906C264.359 179.223 263.919 178.679 263.438 178.275C262.962 177.865 262.464 177.579 261.943 177.416C261.429 177.247 260.941 177.162 260.479 177.162C260.257 177.162 260.036 177.182 259.814 177.221C259.6 177.253 259.391 177.335 259.189 177.465C258.988 177.589 258.799 177.771 258.623 178.012C258.447 178.253 258.294 178.581 258.164 178.998C258.04 179.408 257.939 179.916 257.861 180.521C257.79 181.127 257.754 181.856 257.754 182.709C257.754 183.601 257.78 184.385 257.832 185.062C257.891 185.74 257.975 186.326 258.086 186.82C258.203 187.315 258.343 187.725 258.506 188.051C258.675 188.376 258.87 188.637 259.092 188.832C259.32 189.027 259.574 189.167 259.854 189.252C260.133 189.33 260.439 189.369 260.771 189.369C261.423 189.369 262.031 189.271 262.598 189.076C263.164 188.874 263.665 188.559 264.102 188.129C264.538 187.699 264.896 187.146 265.176 186.469C265.462 185.792 265.648 184.978 265.732 184.027H266.592C266.54 184.945 266.374 185.801 266.094 186.596C265.82 187.39 265.4 188.083 264.834 188.676C264.268 189.268 263.538 189.734 262.646 190.072C261.755 190.411 260.667 190.58 259.385 190.58C258.135 190.58 257.002 190.411 255.986 190.072C254.971 189.734 254.102 189.258 253.379 188.646C252.663 188.028 252.109 187.292 251.719 186.439C251.328 185.587 251.133 184.646 251.133 183.617Z" fill="white"/>
<path d="M231.357 189.438C231.885 189.438 232.288 189.402 232.568 189.33C232.855 189.258 233.037 189.128 233.115 188.939L238.145 176.371H242.432L248.32 189.438H250.02V190.209H238.945V189.438H240.83L239.482 186.068H235.186L234.043 188.91C234.036 188.93 234.033 188.956 234.033 188.988C234.033 189.079 234.076 189.154 234.16 189.213C234.251 189.265 234.375 189.311 234.531 189.35C234.694 189.382 234.883 189.405 235.098 189.418C235.319 189.431 235.56 189.438 235.82 189.438V190.209H231.357V189.438ZM239.18 185.297L237.295 180.688L235.488 185.297H239.18Z" fill="white"/>
<path d="M213.73 189.438C214.01 189.438 214.281 189.431 214.541 189.418C214.808 189.398 215.042 189.369 215.244 189.33C215.446 189.291 215.605 189.236 215.723 189.164C215.846 189.092 215.908 188.998 215.908 188.881V178.695L214.717 177.133H213.555V176.371H222.09L228.369 184.643V177.709C228.369 177.592 228.327 177.497 228.242 177.426C228.164 177.348 228.047 177.289 227.891 177.25C227.734 177.204 227.546 177.175 227.324 177.162C227.103 177.143 226.852 177.133 226.572 177.133V176.371H230.996V177.133C230.436 177.133 229.997 177.169 229.678 177.24C229.359 177.312 229.199 177.468 229.199 177.709V190.209H224.248L216.738 179.789V188.832C216.738 188.962 216.79 189.066 216.895 189.145C217.005 189.223 217.152 189.285 217.334 189.33C217.523 189.369 217.744 189.398 217.998 189.418C218.252 189.431 218.522 189.438 218.809 189.438V190.209H213.73V189.438Z" fill="white"/>
<path d="M187.1 189.438H188.809V177.133H187.1V176.371H197.988C199.023 176.371 199.958 176.527 200.791 176.84C201.624 177.146 202.334 177.595 202.92 178.188C203.506 178.78 203.955 179.506 204.268 180.365C204.587 181.218 204.746 182.191 204.746 183.285C204.746 184.385 204.587 185.365 204.268 186.225C203.955 187.084 203.506 187.81 202.92 188.402C202.334 188.988 201.624 189.438 200.791 189.75C199.958 190.056 199.023 190.209 197.988 190.209H187.1V189.438ZM195.547 189.438C195.853 189.438 196.13 189.408 196.377 189.35C196.631 189.285 196.852 189.167 197.041 188.998C197.23 188.829 197.393 188.601 197.529 188.314C197.666 188.021 197.777 187.647 197.861 187.191C197.952 186.736 198.018 186.189 198.057 185.551C198.102 184.906 198.125 184.151 198.125 183.285C198.125 182.419 198.102 181.667 198.057 181.029C198.018 180.391 197.952 179.844 197.861 179.389C197.777 178.933 197.666 178.559 197.529 178.266C197.393 177.973 197.23 177.745 197.041 177.582C196.852 177.413 196.631 177.296 196.377 177.23C196.13 177.165 195.853 177.133 195.547 177.133V189.438Z" fill="white"/>
<path d="M167.51 189.438C168.037 189.438 168.441 189.402 168.721 189.33C169.007 189.258 169.189 189.128 169.268 188.939L174.297 176.371H178.584L184.473 189.438H186.172V190.209H175.098V189.438H176.982L175.635 186.068H171.338L170.195 188.91C170.189 188.93 170.186 188.956 170.186 188.988C170.186 189.079 170.228 189.154 170.312 189.213C170.404 189.265 170.527 189.311 170.684 189.35C170.846 189.382 171.035 189.405 171.25 189.418C171.471 189.431 171.712 189.438 171.973 189.438V190.209H167.51V189.438ZM175.332 185.297L173.447 180.688L171.641 185.297H175.332Z" fill="white"/>
<path d="M148.857 189.438H150.566V177.133H148.857V176.371H159.746C160.781 176.371 161.715 176.527 162.549 176.84C163.382 177.146 164.092 177.595 164.678 178.188C165.264 178.78 165.713 179.506 166.025 180.365C166.344 181.218 166.504 182.191 166.504 183.285C166.504 184.385 166.344 185.365 166.025 186.225C165.713 187.084 165.264 187.81 164.678 188.402C164.092 188.988 163.382 189.438 162.549 189.75C161.715 190.056 160.781 190.209 159.746 190.209H148.857V189.438ZM157.305 189.438C157.611 189.438 157.887 189.408 158.135 189.35C158.389 189.285 158.61 189.167 158.799 188.998C158.988 188.829 159.15 188.601 159.287 188.314C159.424 188.021 159.535 187.647 159.619 187.191C159.71 186.736 159.775 186.189 159.814 185.551C159.86 184.906 159.883 184.151 159.883 183.285C159.883 182.419 159.86 181.667 159.814 181.029C159.775 180.391 159.71 179.844 159.619 179.389C159.535 178.933 159.424 178.559 159.287 178.266C159.15 177.973 158.988 177.745 158.799 177.582C158.61 177.413 158.389 177.296 158.135 177.23C157.887 177.165 157.611 177.133 157.305 177.133V189.438Z" fill="white"/>
<path d="M136.768 189.438H138.477V177.133H136.768V176.371H146.914V177.133H145.215V189.438H146.914V190.209H136.768V189.438Z" fill="white"/>
<path d="M120.312 184.896H120.967C121.13 185.215 121.331 185.561 121.572 185.932C121.813 186.296 122.096 186.661 122.422 187.025C122.747 187.39 123.118 187.742 123.535 188.08C123.952 188.412 124.417 188.705 124.932 188.959C125.446 189.213 126.012 189.418 126.631 189.574C127.249 189.724 127.926 189.799 128.662 189.799C128.877 189.799 129.118 189.789 129.385 189.77C129.652 189.743 129.902 189.695 130.137 189.623C130.371 189.545 130.566 189.438 130.723 189.301C130.885 189.158 130.967 188.969 130.967 188.734C130.967 188.487 130.863 188.269 130.654 188.08C130.452 187.885 130.143 187.699 129.727 187.523C129.31 187.341 128.783 187.159 128.145 186.977C127.513 186.794 126.768 186.589 125.908 186.361C123.994 185.867 122.575 185.176 121.65 184.291C120.732 183.399 120.273 182.312 120.273 181.029C120.273 180.229 120.436 179.516 120.762 178.891C121.094 178.266 121.543 177.742 122.109 177.318C122.682 176.889 123.35 176.563 124.111 176.342C124.88 176.114 125.697 176 126.562 176C127.005 176 127.467 176.039 127.949 176.117C128.438 176.195 128.913 176.303 129.375 176.439C129.837 176.576 130.273 176.742 130.684 176.938C131.094 177.126 131.452 177.335 131.758 177.562L133.232 176.137H133.906V180.385H133.291C133.005 179.87 132.637 179.392 132.188 178.949C131.738 178.507 131.224 178.122 130.645 177.797C130.065 177.471 129.424 177.214 128.721 177.025C128.018 176.837 127.272 176.742 126.484 176.742C126.335 176.742 126.143 176.749 125.908 176.762C125.674 176.768 125.443 176.801 125.215 176.859C124.993 176.918 124.801 177.012 124.639 177.143C124.476 177.266 124.395 177.442 124.395 177.67C124.395 178.041 124.73 178.399 125.4 178.744C126.077 179.083 127.083 179.428 128.418 179.779C128.984 179.929 129.531 180.089 130.059 180.258C130.586 180.421 131.077 180.609 131.533 180.824C131.995 181.033 132.412 181.273 132.783 181.547C133.161 181.814 133.483 182.13 133.75 182.494C134.017 182.859 134.222 183.275 134.365 183.744C134.515 184.213 134.59 184.753 134.59 185.365C134.59 186.075 134.46 186.745 134.199 187.377C133.939 188.008 133.548 188.562 133.027 189.037C132.513 189.512 131.872 189.89 131.104 190.17C130.335 190.443 129.447 190.58 128.438 190.58C127.884 190.58 127.363 190.538 126.875 190.453C126.387 190.368 125.911 190.242 125.449 190.072C124.993 189.903 124.541 189.691 124.092 189.438C123.643 189.177 123.18 188.874 122.705 188.529L121.045 190.395H120.312V184.896Z" fill="white"/>
<path d="M99.6582 189.438H101.367V177.133H99.6582V176.371H110.82C111.712 176.371 112.507 176.443 113.203 176.586C113.906 176.729 114.495 176.951 114.971 177.25C115.452 177.543 115.817 177.917 116.064 178.373C116.318 178.829 116.445 179.366 116.445 179.984C116.445 180.525 116.335 181.007 116.113 181.43C115.898 181.853 115.527 182.211 115 182.504C114.479 182.797 113.779 183.025 112.9 183.188C112.028 183.344 110.938 183.425 109.629 183.432C110.801 183.438 111.8 183.497 112.627 183.607C113.454 183.712 114.128 183.897 114.648 184.164C115.176 184.424 115.56 184.779 115.801 185.229C116.042 185.671 116.162 186.234 116.162 186.918C116.162 187.107 116.159 187.27 116.152 187.406C116.152 187.536 116.149 187.693 116.143 187.875C116.13 188.064 116.123 188.21 116.123 188.314C116.123 188.412 116.123 188.526 116.123 188.656C116.123 188.858 116.149 189.011 116.201 189.115C116.26 189.219 116.354 189.271 116.484 189.271C116.699 189.271 116.855 189.063 116.953 188.646C117.051 188.23 117.1 187.628 117.1 186.84H117.92V187.152C117.92 187.797 117.858 188.34 117.734 188.783C117.617 189.226 117.402 189.584 117.09 189.857C116.784 190.131 116.37 190.326 115.85 190.443C115.329 190.567 114.668 190.629 113.867 190.629C113.099 190.629 112.461 190.548 111.953 190.385C111.445 190.229 111.038 189.994 110.732 189.682C110.433 189.369 110.221 188.982 110.098 188.52C109.974 188.057 109.912 187.523 109.912 186.918C109.912 186.254 109.876 185.71 109.805 185.287C109.74 184.864 109.635 184.532 109.492 184.291C109.349 184.044 109.16 183.874 108.926 183.783C108.698 183.692 108.424 183.646 108.105 183.646V189.438H109.805V190.209H99.6582V189.438ZM108.105 182.875C108.457 182.875 108.763 182.833 109.023 182.748C109.284 182.663 109.499 182.514 109.668 182.299C109.844 182.084 109.974 181.791 110.059 181.42C110.143 181.042 110.186 180.564 110.186 179.984C110.186 179.405 110.143 178.933 110.059 178.568C109.974 178.197 109.844 177.908 109.668 177.699C109.499 177.484 109.284 177.338 109.023 177.26C108.763 177.175 108.457 177.133 108.105 177.133V182.875Z" fill="white"/>
<path d="M81.5723 189.438H83.2812V177.133H81.5723V176.371H96.6992V181.127H96.0352L93.3203 177.133H90.0195V182.943H91.4941L92.7832 179.721H93.418V186.947H92.7832L91.4941 183.705H90.0195V189.438H93.6621L96.4941 184.994H97.168V190.209H81.5723V189.438Z" fill="white"/>
<path d="M64.4141 177.133H62.9785V176.371H73.4082V177.133H71.6895L74.9902 185.668L77.9492 177.738C77.9688 177.68 77.9785 177.628 77.9785 177.582C77.9785 177.497 77.9329 177.429 77.8418 177.377C77.7572 177.318 77.6335 177.273 77.4707 177.24C77.3145 177.201 77.1257 177.175 76.9043 177.162C76.6895 177.143 76.4518 177.133 76.1914 177.133V176.371H80.7422V177.133C80.1693 177.133 79.7461 177.178 79.4727 177.27C79.2057 177.361 79.0299 177.517 78.9453 177.738L74.3262 190.209H70.1367L64.4141 177.133Z" fill="white"/>
<path d="M51.9043 189.438H53.6133V177.133H51.9043V176.371H62.0508V177.133H60.3516V189.438H62.0508V190.209H51.9043V189.438Z" fill="white"/>
<path d="M33.1641 189.438C33.444 189.438 33.7142 189.431 33.9746 189.418C34.2415 189.398 34.4759 189.369 34.6777 189.33C34.8796 189.291 35.0391 189.236 35.1562 189.164C35.2799 189.092 35.3418 188.998 35.3418 188.881V178.695L34.1504 177.133H32.9883V176.371H41.5234L47.8027 184.643V177.709C47.8027 177.592 47.7604 177.497 47.6758 177.426C47.5977 177.348 47.4805 177.289 47.3242 177.25C47.168 177.204 46.9792 177.175 46.7578 177.162C46.5365 177.143 46.2858 177.133 46.0059 177.133V176.371H50.4297V177.133C49.8698 177.133 49.4303 177.169 49.1113 177.24C48.7923 177.312 48.6328 177.468 48.6328 177.709V190.209H43.6816L36.1719 179.789V188.832C36.1719 188.962 36.224 189.066 36.3281 189.145C36.4388 189.223 36.5853 189.285 36.7676 189.33C36.9564 189.369 37.1777 189.398 37.4316 189.418C37.6855 189.431 37.9557 189.438 38.2422 189.438V190.209H33.1641V189.438Z" fill="white"/>
<path d="M16.709 177.133H15V176.371H25.1465V177.133H23.4473V184.672C23.4473 185.284 23.4798 185.867 23.5449 186.42C23.61 186.973 23.7435 187.462 23.9453 187.885C24.1536 188.301 24.4466 188.633 24.8242 188.881C25.2083 189.128 25.7161 189.252 26.3477 189.252C26.5885 189.252 26.8359 189.229 27.0898 189.184C27.3438 189.132 27.5879 189.037 27.8223 188.9C28.0632 188.764 28.2878 188.575 28.4961 188.334C28.7109 188.093 28.8965 187.784 29.0527 187.406C29.2155 187.022 29.3424 186.563 29.4336 186.029C29.5247 185.489 29.5703 184.851 29.5703 184.115V177.709C29.5703 177.52 29.4238 177.377 29.1309 177.279C28.8444 177.182 28.418 177.133 27.8516 177.133V176.371H32.0996V177.133C31.5397 177.133 31.1165 177.182 30.8301 177.279C30.5436 177.377 30.4004 177.52 30.4004 177.709V183.842C30.4004 185.027 30.2897 186.046 30.0684 186.898C29.8535 187.745 29.4857 188.441 28.9648 188.988C28.4505 189.535 27.7637 189.939 26.9043 190.199C26.0514 190.453 24.987 190.58 23.7109 190.58C22.8255 190.58 22.0378 190.502 21.3477 190.346C20.6576 190.189 20.0521 189.971 19.5312 189.691C19.0104 189.405 18.571 189.066 18.2129 188.676C17.8548 188.279 17.5651 187.846 17.3438 187.377C17.1224 186.902 16.9596 186.397 16.8555 185.863C16.7578 185.329 16.709 184.779 16.709 184.213V177.133Z" fill="white"/>
<defs>
<clipPath id="clip0_0_1">
<rect width="534.667" height="166.667" fill="white"/>
</clipPath>
</defs>
</svg>
