<?xml version="1.0" standalone="no"?>
<!DOCTYPE svg PUBLIC "-//W3C//DTD SVG 20010904//EN"
 "http://www.w3.org/TR/2001/REC-SVG-20010904/DTD/svg10.dtd">
<svg version="1.0" xmlns="http://www.w3.org/2000/svg"
 width="401.000000pt" height="125.000000pt" viewBox="0 0 401.000000 125.000000"
 preserveAspectRatio="xMidYMid meet">

<g transform="translate(0.000000,125.000000) scale(0.100000,-0.100000)"
fill="#000000" stroke="none">
<path d="M42 918 l3 -293 27 -46 c81 -138 219 -195 501 -206 86 -3 157 -3 157
0 0 3 -21 16 -47 29 -27 13 -69 45 -95 71 -74 75 -78 98 -78 444 l0 293 -236
0 -235 0 3 -292z"/>
<path d="M958 893 l-3 -318 -28 -48 c-16 -27 -53 -67 -83 -90 -62 -48 -59 -51
53 -62 88 -9 189 7 297 46 103 37 177 98 212 174 23 49 24 57 24 333 l0 282
-234 0 -235 0 -3 -317z"/>
<path d="M1620 1179 c70 -38 114 -81 143 -139 21 -43 22 -57 25 -357 l3 -313
235 0 235 0 -3 293 c-3 281 -4 294 -26 334 -34 64 -87 112 -166 149 -100 47
-199 64 -363 64 l-138 0 55 -31z"/>
<path d="M2345 1105 c-58 -80 -75 -110 -69 -123 5 -9 11 -145 14 -302 l5 -285
211 295 c216 303 345 485 358 508 6 9 -41 12 -218 12 l-224 0 -77 -105z"/>
<path d="M2823 1073 c-55 -76 -108 -151 -118 -166 l-18 -28 43 -62 c24 -34
105 -146 179 -249 l136 -188 65 0 c79 0 165 28 240 79 97 66 110 33 -166 411
-134 184 -248 336 -253 338 -5 2 -54 -59 -108 -135z"/>
<path d="M3498 898 l-3 -313 -29 -53 c-32 -57 -73 -95 -146 -133 l-45 -24 100
-3 c174 -6 343 27 442 85 24 14 61 45 82 69 67 76 71 101 71 411 l0 273 -234
0 -235 0 -3 -312z"/>
<path d="M830 140 c-26 -26 -14 -53 30 -68 42 -15 41 -45 -2 -40 -40 4 -48
-14 -13 -25 18 -6 33 -4 50 7 37 25 32 52 -15 76 -45 23 -44 45 1 36 37 -7 48
11 14 24 -36 14 -42 13 -65 -10z"/>
<path d="M1920 153 c-33 -12 -50 -37 -50 -73 0 -55 55 -94 100 -70 27 14 17
29 -15 22 -29 -5 -65 21 -65 48 0 27 36 53 64 46 31 -8 43 9 17 23 -21 12 -28
12 -51 4z"/>
<path d="M2120 147 c-53 -27 -51 -109 4 -136 25 -12 33 -11 62 3 56 26 59 103
4 131 -35 18 -38 18 -70 2z m68 -29 c7 -7 12 -24 12 -38 0 -31 -17 -50 -45
-50 -28 0 -45 19 -45 50 0 31 17 50 45 50 12 0 26 -5 33 -12z"/>
<path d="M3739 131 c-33 -33 -36 -56 -13 -89 22 -31 58 -44 90 -32 33 13 22
31 -15 24 -18 -4 -33 0 -44 11 -37 36 -6 91 44 81 34 -7 47 9 20 23 -31 17
-51 13 -82 -18z"/>
<path d="M2 90 c2 -33 9 -65 16 -72 18 -18 73 -14 88 7 16 22 19 125 4 125 -5
0 -10 -19 -10 -43 0 -50 -18 -81 -46 -75 -16 3 -20 13 -22 61 -2 44 -7 57 -19
57 -13 0 -15 -10 -11 -60z"/>
<path d="M160 80 c0 -40 4 -70 10 -70 6 0 10 20 10 45 0 25 3 45 8 45 4 0 20
-20 35 -45 18 -28 36 -45 48 -45 17 0 19 8 19 70 0 54 -3 70 -14 70 -11 0 -16
-14 -18 -47 l-3 -48 -33 48 c-48 68 -62 63 -62 -23z"/>
<path d="M330 80 c0 -49 4 -70 13 -70 8 0 12 21 12 70 0 49 -4 70 -12 70 -9 0
-13 -21 -13 -70z"/>
<path d="M405 85 c14 -36 25 -68 25 -70 0 -3 9 -5 20 -5 11 0 20 2 20 5 0 2
11 34 25 70 19 51 21 65 10 65 -8 0 -21 -23 -31 -55 -10 -30 -21 -52 -24 -48
-4 5 -15 29 -24 56 -10 26 -24 47 -31 47 -11 0 -8 -15 10 -65z"/>
<path d="M550 80 l0 -70 45 0 c25 0 45 5 45 10 0 6 -16 10 -35 10 -28 0 -35 4
-35 20 0 16 7 20 30 20 17 0 30 5 30 10 0 6 -13 10 -30 10 -23 0 -30 4 -30 20
0 16 7 20 35 20 19 0 35 5 35 10 0 6 -20 10 -45 10 l-45 0 0 -70z"/>
<path d="M675 80 c0 -49 4 -70 13 -70 6 0 12 11 12 25 0 14 6 25 13 25 8 0 20
-11 27 -25 7 -14 19 -25 27 -25 11 0 11 5 -1 29 -14 26 -14 30 -1 35 18 7 20
47 3 64 -7 7 -30 12 -52 12 l-41 0 0 -70z m78 36 c7 -19 -18 -40 -38 -32 -8 3
-15 15 -15 26 0 14 7 20 24 20 13 0 26 -6 29 -14z"/>
<path d="M950 80 c0 -56 3 -70 15 -70 12 0 15 14 15 70 0 56 -3 70 -15 70 -12
0 -15 -14 -15 -70z"/>
<path d="M1020 80 l0 -70 40 0 c46 0 90 34 90 70 0 36 -44 70 -90 70 l-40 0 0
-70z m82 33 c10 -9 18 -23 18 -31 0 -24 -31 -52 -57 -52 -21 0 -23 4 -23 50 0
45 2 50 22 50 12 0 30 -7 40 -17z"/>
<path d="M1192 98 c-11 -29 -23 -61 -27 -70 -5 -13 -2 -18 8 -18 8 0 17 7 21
15 8 21 76 21 76 0 0 -8 7 -15 15 -15 20 0 19 9 -11 79 -34 78 -54 80 -82 9z
m57 -25 c1 -7 -8 -13 -19 -13 -23 0 -25 12 -8 43 11 21 11 21 19 2 4 -11 8
-26 8 -32z"/>
<path d="M1340 80 l0 -70 40 0 c54 0 95 38 86 78 -10 39 -42 62 -87 62 l-39 0
0 -70z m82 33 c10 -9 18 -23 18 -31 0 -24 -31 -52 -57 -52 -21 0 -23 4 -23 50
0 45 2 50 22 50 12 0 30 -7 40 -17z"/>
<path d="M1550 80 c0 -40 4 -70 10 -70 6 0 10 20 10 45 0 25 3 45 8 45 4 0 20
-20 35 -45 18 -28 36 -45 48 -45 17 0 19 8 19 70 0 54 -3 70 -14 70 -11 0 -16
-14 -18 -47 l-3 -48 -33 48 c-48 68 -62 63 -62 -23z"/>
<path d="M1736 84 c-26 -65 -27 -96 -2 -61 17 22 86 24 86 2 0 -8 7 -15 15
-15 19 0 20 -1 -11 75 -35 87 -53 87 -88 -1z m58 14 c9 -35 8 -38 -14 -38 -11
0 -20 3 -20 8 0 19 13 52 20 52 4 0 10 -10 14 -22z"/>
<path d="M2020 80 c0 -56 3 -70 15 -70 12 0 15 14 15 70 0 56 -3 70 -15 70
-12 0 -15 -14 -15 -70z"/>
<path d="M2260 80 c0 -54 3 -70 14 -70 11 0 16 14 18 48 l3 47 30 -47 c17 -28
38 -48 48 -48 15 0 17 10 17 70 0 54 -3 70 -14 70 -11 0 -16 -14 -18 -47 l-3
-48 -30 47 c-17 28 -38 48 -47 48 -16 0 -18 -10 -18 -70z"/>
<path d="M2449 83 c-16 -40 -22 -70 -16 -72 5 -2 14 4 19 13 12 21 74 22 82 1
3 -8 12 -15 20 -15 12 0 9 14 -13 67 -38 94 -58 95 -92 6z m61 -5 c0 -11 -8
-18 -20 -18 -23 0 -23 0 -9 37 8 22 12 24 19 13 6 -8 10 -23 10 -32z"/>
<path d="M2600 80 l0 -70 50 0 c28 0 50 5 50 10 0 6 -18 10 -40 10 l-40 0 0
60 c0 33 -4 60 -10 60 -6 0 -10 -30 -10 -70z"/>
<path d="M2770 80 l0 -70 45 0 c54 0 85 25 85 70 0 45 -31 70 -85 70 l-45 0 0
-70z m90 30 c24 -24 24 -29 4 -58 -8 -12 -26 -22 -40 -22 -22 0 -24 4 -24 50
0 43 3 50 20 50 11 0 29 -9 40 -20z"/>
<path d="M2930 80 l0 -70 50 0 c28 0 50 5 50 10 0 6 -16 10 -35 10 -28 0 -35
4 -35 20 0 16 7 20 30 20 17 0 30 5 30 10 0 6 -13 10 -30 10 -23 0 -30 4 -30
20 0 16 7 20 35 20 19 0 35 5 35 10 0 6 -22 10 -50 10 l-50 0 0 -70z"/>
<path d="M3150 89 c0 -56 -2 -60 -22 -57 -11 2 -23 -2 -25 -8 -7 -20 29 -25
53 -9 21 13 24 23 24 75 0 47 -3 60 -15 60 -12 0 -15 -13 -15 -61z"/>
<path d="M3220 97 c0 -29 6 -62 14 -72 18 -25 74 -25 92 0 19 26 19 125 -1
125 -10 0 -15 -15 -17 -57 -2 -48 -6 -58 -22 -61 -28 -6 -46 25 -46 75 0 24
-4 43 -10 43 -5 0 -10 -24 -10 -53z"/>
<path d="M3375 80 l0 -70 48 0 c26 0 47 5 47 10 0 6 -16 10 -35 10 l-35 0 0
60 c0 41 -4 60 -12 60 -9 0 -13 -21 -13 -70z"/>
<path d="M3500 80 c0 -56 3 -70 15 -70 12 0 15 14 15 70 0 56 -3 70 -15 70
-12 0 -15 -14 -15 -70z"/>
<path d="M3601 128 c-5 -13 -17 -42 -26 -66 -18 -45 -12 -69 9 -39 16 21 74
23 82 2 4 -8 13 -15 21 -15 10 0 13 5 8 18 -4 9 -16 41 -27 70 -23 57 -52 70
-67 30z m44 -45 c5 -19 2 -23 -14 -23 -21 0 -26 15 -15 45 8 19 19 10 29 -22z"/>
<path d="M3892 98 c-11 -29 -23 -61 -27 -70 -5 -13 -2 -18 9 -18 9 0 16 7 16
15 0 11 11 15 40 15 29 0 40 -4 40 -15 0 -8 7 -15 15 -15 20 0 19 9 -11 79
-34 78 -54 80 -82 9z m57 -25 c1 -7 -8 -13 -19 -13 -23 0 -25 12 -8 43 11 21
11 21 19 2 4 -11 8 -26 8 -32z"/>
</g>
</svg>
